<svg width="40" height="40" viewBox="0 0 40 40" fill="none" xmlns="http://www.w3.org/2000/svg">
<circle cx="20" cy="20" r="20" fill="#3EA2F8"/>
<path fill-rule="evenodd" clip-rule="evenodd" d="M13.1505 28.4334C14.6844 31.1223 17.4321 32.7273 20.5 32.7273C23.5679 32.7273 26.315 31.1223 27.8495 28.4334C29.3835 25.7452 29.3835 22.5352 27.8495 19.8463L21.3854 8.51729C20.9919 7.82757 20.0081 7.82757 19.6145 8.5173L13.1505 19.8463C11.6165 22.5346 11.6165 25.7447 13.1505 28.4334ZM18.6791 13.907L20.0572 11.4915C20.254 11.1466 20.746 11.1466 20.9428 11.4915L26.2447 20.7842C27.2188 22.4915 27.4017 24.4674 26.7932 26.2754C26.7299 25.9804 26.6414 25.6786 26.522 25.3737C25.7897 23.5035 24.1337 22.0603 21.5993 21.084C19.8567 20.4152 18.7445 19.4315 18.2926 18.1601C17.7104 16.5215 18.3184 14.7346 18.6791 13.907ZM16.329 18.0259L14.7552 20.7842C13.5561 22.8859 13.5561 25.3948 14.7552 27.4966C15.9544 29.5983 18.1016 30.8525 20.5 30.8525C22.0929 30.8525 23.5755 30.2988 24.7429 29.311C24.8952 28.9231 25.3666 27.5033 24.7841 26.04C24.2462 24.6887 22.9515 23.61 20.9359 22.8331C18.6574 21.9585 17.1772 20.5932 16.5371 18.7762C16.4489 18.5261 16.3804 18.2754 16.329 18.0259Z" fill="white"/>
</svg>
